<svg width="37" height="38" viewBox="0 0 37 38" fill="none" xmlns="http://www.w3.org/2000/svg">
<path d="M25.8205 17.3977C25.2363 16.8149 24.4925 16.4184 23.6831 16.2582C22.8736 16.098 22.0349 16.1813 21.2728 16.4975C20.5106 16.8138 19.8593 17.3488 19.4011 18.035C18.9429 18.7213 18.6984 19.5279 18.6984 20.353C18.6984 21.1782 18.9429 21.9848 19.4011 22.671C19.8593 23.3572 20.5106 23.8923 21.2728 24.2085C22.0349 24.5248 22.8736 24.608 23.6831 24.4478C24.4925 24.2876 25.2363 23.8911 25.8205 23.3084C26.2092 22.9206 26.5177 22.46 26.7281 21.9529C26.9385 21.4458 27.0469 20.9021 27.0469 20.353C27.0469 19.804 26.9385 19.2603 26.7281 18.7532C26.5177 18.2461 26.2092 17.7854 25.8205 17.3977V17.3977ZM21.0953 18.5832C21.5645 18.1133 22.2011 17.8491 22.8651 17.8485C23.2355 17.8519 23.6005 17.9375 23.9338 18.0989L20.5944 21.4383C20.3715 20.9692 20.3 20.4424 20.3898 19.9309C20.4795 19.4194 20.7261 18.9484 21.0953 18.5832V18.5832ZM24.635 22.1229C24.2692 22.4858 23.8003 22.7271 23.2923 22.8137C22.7844 22.9004 22.262 22.8282 21.7965 22.6071L25.1359 19.2677C25.3588 19.7368 25.4303 20.2636 25.3405 20.7752C25.2508 21.2867 25.0042 21.7577 24.635 22.1229V22.1229ZM15.3515 22.8576C14.6994 22.855 14.0532 22.9812 13.4501 23.2291C12.8469 23.4769 12.2987 23.8415 11.8368 24.3019V24.3019C11.13 24.9995 10.6466 25.8915 10.4479 26.8646C10.2493 27.8376 10.3443 28.8477 10.721 29.7666C11.0977 30.6855 11.739 31.4717 12.5635 32.0253C13.388 32.5789 14.3584 32.8749 15.3515 32.8758C16.6389 32.8751 17.8766 32.3788 18.8078 31.4899L18.908 31.4231C18.9255 31.3913 18.945 31.3607 18.9664 31.3313C19.6451 30.6226 20.1007 29.7302 20.2767 28.7648C20.4526 27.7995 20.3412 26.8037 19.9561 25.9012C19.5711 24.9986 18.9294 24.229 18.1108 23.6879C17.2923 23.1469 16.3328 22.8581 15.3515 22.8576V22.8576ZM12.9889 30.2293C12.4722 29.7068 12.1422 29.0285 12.0502 28.2995C11.9581 27.5705 12.1091 26.8315 12.4796 26.197L17.0212 30.7385C16.3867 31.1091 15.6477 31.2601 14.9187 31.168C14.1896 31.0759 13.5113 30.746 12.9889 30.2293V30.2293ZM18.2234 29.5364L13.6818 24.9948C14.1875 24.6947 14.7635 24.5334 15.3515 24.5273C15.936 24.5308 16.5093 24.6877 17.0142 24.9822C17.519 25.2767 17.9377 25.6986 18.2285 26.2056C18.5192 26.7127 18.6717 27.2872 18.6708 27.8717C18.6699 28.4562 18.5156 29.0302 18.2234 29.5364Z" fill="#29A867"/>
<path fill-rule="evenodd" clip-rule="evenodd" d="M35.2563 10.8571H29.909C29.1301 4.82699 24.5176 0 18.6909 0C12.8642 0 8.25173 4.82699 7.47282 10.8571H2.12557C1.61452 10.8571 1.1292 11.0898 0.797894 11.4936C0.466592 11.8974 0.322666 12.4317 0.404164 12.9552L4.06598 36.479C4.20244 37.3557 4.93169 38 5.78739 38H31.5945C32.4502 38 33.1794 37.3557 33.3159 36.479L36.9777 12.9552C37.0592 12.4317 36.9153 11.8974 36.584 11.4936C36.2527 11.0898 35.7673 10.8571 35.2563 10.8571ZM4.17357 14.4762H33.2083L30.1098 34.381H7.27203L4.17357 14.4762ZM18.6909 3.61905C15.0046 3.61905 11.7362 6.63172 10.9992 10.8571H26.3827C25.6456 6.63172 22.3773 3.61905 18.6909 3.61905Z" fill="black" fill-opacity="0.85"/>
</svg>
